<?xml version="1.0" encoding="UTF-8"?>
<!DOCTYPE svg PUBLIC "-//W3C//DTD SVG 1.1//EN" "http://www.w3.org/Graphics/SVG/1.1/DTD/svg11.dtd">
<svg xmlns="http://www.w3.org/2000/svg" version="1.1" width="24px" height="37px" style="shape-rendering:geometricPrecision; text-rendering:geometricPrecision; image-rendering:optimizeQuality; fill-rule:evenodd; clip-rule:evenodd" xmlns:xlink="http://www.w3.org/1999/xlink">
<g><path style="opacity:0.812" fill="#000000" d="M 10.5,-0.5 C 11.5,-0.5 12.5,-0.5 13.5,-0.5C 13.5,0.5 13.5,1.5 13.5,2.5C 18.3135,2.89261 21.6468,5.22594 23.5,9.5C 23.5,10.5 23.5,11.5 23.5,12.5C 19.9267,12.9588 16.9267,11.9588 14.5,9.5C 13.2404,11.3529 13.2404,13.1862 14.5,15C 18.2004,15.8428 21.2004,17.6761 23.5,20.5C 23.5,22.8333 23.5,25.1667 23.5,27.5C 21.1642,31.0076 17.8309,33.0076 13.5,33.5C 13.5,34.5 13.5,35.5 13.5,36.5C 12.5,36.5 11.5,36.5 10.5,36.5C 10.5,35.5 10.5,34.5 10.5,33.5C 5.26149,33.3938 1.59482,31.0604 -0.5,26.5C -0.5,25.1667 -0.5,23.8333 -0.5,22.5C 1.92397,22.1924 4.25731,22.5258 6.5,23.5C 7.16667,24.8333 8.16667,25.8333 9.5,26.5C 10.4656,24.604 10.7989,22.604 10.5,20.5C 0.157524,18.8738 -2.17581,13.7071 3.5,5C 5.65035,3.58859 7.98368,2.75526 10.5,2.5C 10.5,1.5 10.5,0.5 10.5,-0.5 Z M 9.5,8.5 C 10.7879,10.0348 10.7879,11.7015 9.5,13.5C 7.06985,11.9626 7.06985,10.296 9.5,8.5 Z M 13.5,21.5 C 16.7015,22.8395 17.0348,24.5061 14.5,26.5C 13.5481,24.9547 13.2148,23.288 13.5,21.5 Z"/></g>
</svg>
