<?xml version="1.0" encoding="UTF-8"?>
<!DOCTYPE svg PUBLIC "-//W3C//DTD SVG 1.1//EN" "http://www.w3.org/Graphics/SVG/1.1/DTD/svg11.dtd">
<svg xmlns="http://www.w3.org/2000/svg" version="1.1" width="46px" height="32px" style="shape-rendering:geometricPrecision; text-rendering:geometricPrecision; image-rendering:optimizeQuality; fill-rule:evenodd; clip-rule:evenodd" xmlns:xlink="http://www.w3.org/1999/xlink">
<g><path style="opacity:0.809" fill="#000000" d="M 36.5,-0.5 C 37.1667,-0.5 37.8333,-0.5 38.5,-0.5C 42.6905,2.54771 44.0239,6.54771 42.5,11.5C 31.1036,18.1931 19.7702,24.8597 8.5,31.5C 7.83333,31.5 7.16667,31.5 6.5,31.5C 2.60067,28.2967 1.26734,24.2967 2.5,19.5C 13.8964,12.8069 25.2298,6.14027 36.5,-0.5 Z M 34.5,5.5 C 37.9563,6.53625 38.2896,8.20291 35.5,10.5C 33.2957,9.21802 32.9624,7.55136 34.5,5.5 Z M 25.5,10.5 C 29.619,11.3678 30.119,13.0344 27,15.5C 24.3894,14.5001 23.8894,12.8334 25.5,10.5 Z M 16.5,15.5 C 20.1612,15.3501 21.1612,16.8501 19.5,20C 16.2414,19.9181 15.2414,18.4181 16.5,15.5 Z M 8.5,20.5 C 11.9563,21.5362 12.2896,23.2029 9.5,25.5C 7.29572,24.218 6.96238,22.5514 8.5,20.5 Z"/></g>
<g><path style="opacity:0.703" fill="#000000" d="M -0.5,17.5 C -0.5,16.1667 -0.5,14.8333 -0.5,13.5C 0.282883,11.6568 0.94955,9.65676 1.5,7.5C 6.5311,6.58425 11.5311,6.91758 16.5,8.5C 13.5248,12.16 9.85818,13.16 5.5,11.5C 5.60064,16.0717 3.60064,18.0717 -0.5,17.5 Z"/></g>
<g><path style="opacity:0.703" fill="#000000" d="M 45.5,13.5 C 45.5,14.8333 45.5,16.1667 45.5,17.5C 44.7171,19.3432 44.0505,21.3432 43.5,23.5C 38.4689,24.4157 33.4689,24.0824 28.5,22.5C 31.4752,18.84 35.1418,17.84 39.5,19.5C 39.3994,14.9283 41.3994,12.9283 45.5,13.5 Z"/></g>
</svg>
