<?xml version="1.0" encoding="UTF-8"?>
<!DOCTYPE svg PUBLIC "-//W3C//DTD SVG 1.1//EN" "http://www.w3.org/Graphics/SVG/1.1/DTD/svg11.dtd">
<svg xmlns="http://www.w3.org/2000/svg" version="1.1" width="32px" height="40px" style="shape-rendering:geometricPrecision; text-rendering:geometricPrecision; image-rendering:optimizeQuality; fill-rule:evenodd; clip-rule:evenodd" xmlns:xlink="http://www.w3.org/1999/xlink">
<g><path style="opacity:0.887" fill="#000000" d="M 10.5,-0.5 C 13.8333,-0.5 17.1667,-0.5 20.5,-0.5C 24.7524,4.15237 25.5857,9.4857 23,15.5C 21.6032,17.0703 20.1032,18.4036 18.5,19.5C 16.5,19.5 14.5,19.5 12.5,19.5C 7.24605,15.918 5.41272,10.918 7,4.5C 7.69724,2.4156 8.8639,0.748938 10.5,-0.5 Z"/></g>
<g><path style="opacity:0.923" fill="#000000" d="M 12.5,19.5 C 14.5,20.8333 16.5,20.8333 18.5,19.5C 24.026,19.2177 28.3593,21.2177 31.5,25.5C 31.5,29.1667 31.5,32.8333 31.5,36.5C 29.4261,37.5139 27.4261,38.5139 25.5,39.5C 18.8333,39.5 12.1667,39.5 5.5,39.5C 3.57391,38.5139 1.57391,37.5139 -0.5,36.5C -0.5,32.8333 -0.5,29.1667 -0.5,25.5C 2.64071,21.2177 6.97404,19.2177 12.5,19.5 Z"/></g>
</svg>
