<?xml version="1.0" encoding="UTF-8"?>
<!DOCTYPE svg PUBLIC "-//W3C//DTD SVG 1.1//EN" "http://www.w3.org/Graphics/SVG/1.1/DTD/svg11.dtd">
<svg xmlns="http://www.w3.org/2000/svg" version="1.1" width="70px" height="26px" style="shape-rendering:geometricPrecision; text-rendering:geometricPrecision; image-rendering:optimizeQuality; fill-rule:evenodd; clip-rule:evenodd" xmlns:xlink="http://www.w3.org/1999/xlink">
<g><path style="opacity:0.679" fill="#000000" d="M 55.5,-0.5 C 56.5,-0.5 57.5,-0.5 58.5,-0.5C 61.1333,4.0723 62.1333,9.0723 61.5,14.5C 60.5,14.5 59.5,14.5 58.5,14.5C 56.6672,6.53965 55.8338,6.53965 56,14.5C 55,15.8333 54,15.8333 53,14.5C 52.0857,12.3359 50.919,10.3359 49.5,8.5C 49.9452,5.94662 49.9452,3.27995 49.5,0.5C 52.595,0.626299 54.4283,2.29297 55,5.5C 55.5,5 56,4.5 56.5,4C 55.6198,2.64387 55.2865,1.14387 55.5,-0.5 Z"/></g>
<g><path style="opacity:0.417" fill="#000000" d="M 63.5,-0.5 C 64.5,-0.5 65.5,-0.5 66.5,-0.5C 67.5025,1.01094 68.1692,2.67761 68.5,4.5C 66.549,4.77328 65.049,4.10661 64,2.5C 63.6667,2.83333 63.3333,3.16667 63,3.5C 62.4209,2.07153 62.5876,0.738195 63.5,-0.5 Z"/></g>
<g><path style="opacity:0.691" fill="#000000" d="M 10.5,25.5 C 9.83333,25.5 9.16667,25.5 8.5,25.5C 7.27369,21.3203 5.94036,17.1536 4.5,13C 4.90536,12.0546 5.57203,11.3879 6.5,11C 9.51307,10.4978 12.5131,9.99782 15.5,9.5C 15.4914,11.3084 15.9914,12.9751 17,14.5C 18.3515,12.4062 18.8515,10.0728 18.5,7.5C 20.288,7.21478 21.9547,7.54811 23.5,8.5C 23.8148,10.483 24.8148,11.8163 26.5,12.5C 26.1231,10.742 25.4565,9.07536 24.5,7.5C 26.6222,4.86035 28.4556,5.19368 30,8.5C 31,10.8333 32,13.1667 33,15.5C 32.8452,12.1597 32.3452,8.8264 31.5,5.5C 32.8333,5.5 34.1667,5.5 35.5,5.5C 35.7563,7.93724 36.4229,10.2706 37.5,12.5C 38.0016,13.521 38.6683,13.6877 39.5,13C 38.9781,12.4387 38.6448,11.772 38.5,11C 40.1775,8.45343 40.8441,5.6201 40.5,2.5C 42.288,2.21478 43.9547,2.54811 45.5,3.5C 47.9296,7.56205 49.5963,11.8954 50.5,16.5C 47.405,16.3737 45.5717,14.707 45,11.5C 44.5045,13.4727 44.3379,15.4727 44.5,17.5C 41.9321,18.4496 39.4321,18.4496 37,17.5C 34.1089,19.8195 30.7755,21.1528 27,21.5C 24.9743,20.4798 23.6409,18.8132 23,16.5C 22.9218,22.0692 20.2552,24.0692 15,22.5C 11.2571,10.5938 10.4238,10.5938 12.5,22.5C 12.0576,23.7387 11.3909,24.7387 10.5,25.5 Z M 26.5,12.5 C 27.905,14.2251 28.405,16.2251 28,18.5C 26.872,16.6547 26.372,14.6547 26.5,12.5 Z"/></g>
<g><path style="opacity:0.548" fill="#000000" d="M 69.5,6.5 C 69.5,7.16667 69.5,7.83333 69.5,8.5C 67.1331,10.0723 65.1331,9.73901 63.5,7.5C 65.396,6.53443 67.396,6.2011 69.5,6.5 Z"/></g>
<g><path style="opacity:0.373" fill="#000000" d="M -0.5,15.5 C 1.66485,15.1159 3.33152,15.7826 4.5,17.5C 2.83268,18.6664 1.16602,18.6664 -0.5,17.5C -0.5,16.8333 -0.5,16.1667 -0.5,15.5 Z"/></g>
<g><path style="opacity:0.547" fill="#000000" d="M -0.5,19.5 C 0.873441,19.3433 2.20677,19.51 3.5,20C 2.94404,20.3826 2.61071,20.8826 2.5,21.5C 1.5,21.5 0.5,21.5 -0.5,21.5C -0.5,20.8333 -0.5,20.1667 -0.5,19.5 Z"/></g>
<g><path style="opacity:0.657" fill="#000000" d="M 5.5,25.5 C 3.83333,25.5 2.16667,25.5 0.5,25.5C 0.527092,23.8007 1.19376,22.4674 2.5,21.5C 3.4959,21.5858 4.32924,21.2524 5,20.5C 5.49351,22.1341 5.66018,23.8008 5.5,25.5 Z"/></g>
</svg>
