<svg width="745" height="599" viewBox="0 0 745 599" fill="none" xmlns="http://www.w3.org/2000/svg">
<path d="M502.305 8.48285L525.226 4.8533C681.682 -19.9222 832.236 75.5385 875.655 227.877C927.896 411.168 978.379 592.527 975.5 597.5C971.989 603.564 806.742 554.004 674.734 512.982C615.448 494.559 552.148 493.338 492.325 509.938L252.092 576.596C175.984 597.715 94.9258 567.503 51.2066 501.723L27.8365 466.56C-44.9806 356.999 37.1534 211.077 168.594 216.486C222.004 218.683 273.023 194.239 304.778 151.239L335.266 109.952C375.467 55.5132 435.464 19.0674 502.305 8.48285Z" fill="url(#paint0_linear)"/>
<defs>
<linearGradient id="paint0_linear" x1="894.807" y1="-517.34" x2="-84.115" y2="-142.898" gradientUnits="userSpaceOnUse">
<stop stop-color="#000000"/>
<stop offset="1" stop-color="#757575"/>
</linearGradient>
</defs>
</svg>
