<?xml version="1.0" standalone="no"?>
<!DOCTYPE svg PUBLIC "-//W3C//DTD SVG 20010904//EN"
 "http://www.w3.org/TR/2001/REC-SVG-20010904/DTD/svg10.dtd">
<svg version="1.0" xmlns="http://www.w3.org/2000/svg"
 width="508.000000pt" height="454.000000pt" viewBox="0 0 508.000000 454.000000"
 preserveAspectRatio="xMidYMid meet">
<metadata>
Created by potrace 1.16, written by Peter Selinger 2001-2019
</metadata>
<g transform="translate(0.000000,454.000000) scale(0.100000,-0.100000)"
fill="#000000" stroke="none">
<path d="M417 4290 c-16 -16 -37 -30 -48 -30 -12 0 -19 -7 -19 -20 0 -12 -12
-32 -26 -45 l-25 -23 3 -180 c3 -155 5 -183 21 -199 9 -11 17 -26 17 -35 0 -8
9 -23 20 -33 11 -10 20 -26 20 -36 0 -11 13 -32 30 -47 16 -16 30 -36 30 -44
0 -8 14 -30 30 -48 17 -18 30 -41 30 -50 0 -9 11 -26 25 -38 14 -12 25 -28 25
-36 0 -7 16 -30 35 -50 19 -21 35 -43 35 -50 0 -8 7 -19 15 -26 8 -7 15 -20
15 -29 0 -9 14 -31 30 -49 17 -18 30 -42 30 -53 0 -11 7 -22 15 -26 9 -3 23
-20 32 -37 9 -17 29 -47 44 -67 16 -20 29 -43 29 -51 0 -7 9 -19 20 -26 11 -7
20 -23 20 -37 0 -14 8 -29 20 -35 11 -6 23 -23 26 -38 4 -15 22 -42 40 -59 19
-18 34 -39 34 -45 0 -7 9 -24 20 -38 11 -14 20 -29 20 -35 0 -5 13 -23 28 -40
27 -29 72 -111 72 -131 0 -5 16 -24 35 -41 19 -18 35 -41 35 -51 0 -11 7 -25
15 -32 19 -16 19 -86 0 -124 -8 -15 -15 -36 -15 -46 0 -9 -9 -25 -20 -35 -11
-10 -20 -25 -20 -33 0 -8 -11 -23 -25 -34 -14 -11 -25 -29 -25 -41 0 -12 -9
-28 -20 -35 -11 -7 -20 -20 -20 -30 0 -10 -13 -34 -30 -52 -16 -18 -30 -42
-30 -51 0 -10 -5 -21 -10 -24 -6 -3 -10 -13 -10 -21 0 -8 -13 -28 -29 -44 -16
-17 -44 -60 -62 -97 -19 -36 -42 -71 -51 -77 -10 -6 -18 -20 -18 -32 0 -12 -7
-27 -15 -34 -8 -7 -15 -18 -15 -26 0 -7 -6 -19 -13 -26 -7 -7 -19 -28 -26 -46
-8 -18 -22 -37 -32 -43 -11 -5 -19 -20 -19 -33 0 -13 -9 -31 -20 -41 -11 -10
-20 -26 -20 -35 0 -9 -9 -25 -20 -35 -11 -10 -20 -28 -20 -41 0 -14 -8 -25
-20 -29 -12 -4 -20 -15 -20 -28 0 -13 -13 -34 -30 -49 -16 -14 -30 -36 -30
-47 0 -12 -7 -24 -15 -27 -8 -4 -15 -16 -15 -28 0 -12 -13 -35 -30 -51 -16
-16 -30 -36 -30 -46 0 -9 -7 -22 -15 -29 -8 -7 -15 -20 -15 -29 0 -9 -14 -29
-30 -45 -17 -16 -30 -37 -30 -46 0 -10 -6 -23 -14 -29 -23 -20 -29 -68 -33
-291 l-3 -215 25 -29 c14 -16 25 -35 25 -42 0 -8 38 -52 84 -99 l85 -85 925 0
c916 0 925 0 931 20 3 11 10 20 15 20 4 0 11 11 14 24 3 14 21 41 40 60 51 55
71 50 164 -44 l78 -80 1047 0 1047 0 0 158 c0 138 -3 164 -20 199 -11 23 -24
45 -30 48 -5 3 -10 13 -10 21 0 8 -10 25 -21 37 -12 12 -28 36 -35 54 -8 17
-18 34 -24 38 -5 3 -10 14 -10 24 0 10 -11 28 -25 41 -14 13 -25 31 -25 40 0
9 -13 29 -30 45 -16 16 -30 33 -30 38 0 5 -9 20 -20 34 -11 14 -20 32 -20 41
0 8 -13 30 -30 49 -16 18 -30 40 -30 47 0 8 -7 19 -15 26 -8 7 -15 21 -15 30
0 10 -13 31 -30 47 -16 15 -30 36 -30 45 0 10 -9 23 -20 30 -11 7 -20 18 -20
24 0 6 -11 28 -25 48 -14 20 -25 42 -25 48 0 6 -13 26 -30 45 -16 18 -30 40
-30 48 0 9 -11 25 -25 37 -14 12 -25 30 -25 40 0 10 -9 26 -20 35 -11 10 -20
24 -20 32 0 8 -9 24 -20 36 -21 22 -70 110 -70 126 0 5 -15 24 -33 42 -19 17
-39 46 -46 64 -7 17 -19 34 -27 37 -8 3 -14 13 -14 22 0 10 -8 26 -17 36 -34
38 -56 139 -33 153 5 3 10 14 10 24 0 10 9 26 20 36 11 10 20 26 20 35 0 9 11
27 25 40 14 13 25 30 25 38 0 7 9 25 20 39 11 14 20 31 20 37 0 6 14 25 30 43
17 18 30 39 30 47 0 8 14 28 30 44 17 17 30 37 30 45 0 8 7 20 15 27 8 7 15
20 15 29 0 10 14 30 30 46 17 16 30 39 30 51 0 12 7 24 15 28 8 3 15 14 15 24
0 10 13 34 30 52 16 18 30 39 30 46 0 6 7 17 15 24 8 7 15 20 15 30 0 9 13 30
30 46 16 16 30 36 30 45 0 9 8 27 18 40 10 13 23 37 30 52 6 15 19 30 27 33 8
4 15 14 15 23 0 10 14 30 30 46 17 16 30 34 30 39 0 18 43 97 67 124 13 14 23
33 23 43 0 11 4 19 8 19 5 0 23 29 40 65 18 35 37 67 42 70 6 3 10 17 10 30 0
13 5 27 10 30 6 3 10 13 10 21 0 9 7 22 15 30 33 34 13 276 -28 329 -4 6 -16
21 -27 34 -11 13 -20 29 -20 35 0 6 -67 78 -150 159 -82 82 -150 153 -150 158
0 5 -7 9 -15 9 -8 0 -15 7 -15 15 0 8 -8 15 -17 15 -10 0 -29 9 -43 20 -14 11
-33 20 -42 20 -10 0 -18 5 -18 10 0 7 -231 10 -674 10 -586 0 -675 -2 -686
-15 -7 -8 -20 -15 -30 -15 -20 0 -153 -133 -158 -158 -2 -9 -25 -38 -50 -64
-72 -74 -85 -70 -212 57 -58 58 -113 105 -123 105 -10 0 -30 14 -44 30 -13 17
-33 30 -43 30 -10 0 -23 7 -30 15 -11 13 -119 15 -864 15 l-851 0 -28 -30z
m1658 -45 c22 -21 34 -39 29 -46 -4 -7 -3 -9 3 -6 5 3 88 -74 184 -171 147
-150 151 -155 28 -33 -81 79 -149 139 -152 135 -5 -9 59 -143 227 -472 54
-106 95 -199 92 -207 -13 -34 5 -10 47 63 85 149 116 209 110 216 -3 3 -2 6 4
6 10 0 38 49 35 63 -1 4 3 7 9 7 5 0 7 5 4 10 -3 6 -2 10 4 10 6 0 13 11 17
25 3 14 10 25 16 25 5 0 6 5 3 10 -3 6 -2 10 4 10 8 0 24 31 26 51 0 3 8 13
18 23 15 16 19 24 16 42 0 3 11 20 25 38 14 19 22 36 19 40 -4 3 0 6 7 6 7 0
11 3 8 6 -6 5 63 146 84 171 8 10 135 13 587 13 l576 0 205 -207 c113 -115
136 -141 53 -58 -84 82 -153 145 -153 140 0 -6 -11 -22 -24 -37 -14 -14 -22
-29 -19 -32 4 -3 1 -6 -5 -6 -7 0 -12 -6 -12 -14 0 -8 -3 -16 -7 -18 -5 -1
-21 -29 -37 -60 -15 -32 -32 -58 -36 -58 -4 0 -16 -17 -25 -37 -10 -21 -31
-58 -48 -83 -16 -25 -44 -70 -60 -100 -16 -30 -40 -69 -53 -87 -13 -17 -24
-36 -24 -42 0 -6 -4 -11 -8 -11 -4 0 -13 -12 -20 -27 -20 -45 -44 -88 -53 -93
-8 -5 -23 -31 -75 -125 -9 -16 -32 -51 -50 -78 -19 -26 -34 -51 -34 -56 0 -4
-13 -27 -30 -49 -16 -23 -30 -46 -30 -50 0 -5 -9 -17 -20 -27 -11 -10 -20 -26
-20 -37 0 -10 -3 -18 -8 -18 -4 0 -18 -20 -31 -45 -13 -25 -28 -45 -33 -45 -5
0 -7 -4 -4 -9 3 -4 -6 -21 -19 -37 -14 -16 -25 -33 -25 -38 0 -12 -51 -88 -65
-98 -5 -4 -6 -8 -2 -8 5 0 -1 -12 -12 -26 -12 -15 -21 -31 -21 -36 0 -10 -40
-70 -55 -80 -7 -5 -7 -8 0 -8 6 0 5 -3 -1 -8 -10 -6 -29 -38 -69 -113 -5 -11
-13 -19 -17 -19 -22 0 5 -50 148 -282 167 -269 270 -436 409 -663 47 -77 117
-189 155 -250 39 -60 73 -116 76 -124 4 -7 85 -139 180 -294 96 -154 174 -284
174 -289 0 -4 -340 -8 -756 -8 -601 0 -754 -3 -748 -12 9 -14 -106 83 -125
106 -7 8 -109 209 -226 445 -189 381 -247 490 -215 406 6 -16 6 -25 0 -25 -6
0 -10 -4 -10 -10 0 -15 -44 -106 -94 -195 -25 -44 -50 -91 -56 -105 -6 -14
-21 -45 -34 -70 -44 -83 -123 -234 -177 -335 -29 -55 -64 -123 -78 -152 l-26
-52 -570 -3 -569 -3 -63 55 c-59 51 -77 80 -52 80 5 0 8 4 5 9 -4 5 -1 11 4
13 6 2 12 12 14 21 1 10 7 22 12 25 13 9 46 62 39 62 -3 0 3 10 14 22 11 11
18 25 15 30 -3 4 0 8 6 8 6 0 9 4 6 9 -3 4 3 16 14 26 11 10 18 21 15 25 -2 4
5 17 16 29 12 12 22 29 23 37 1 9 7 19 12 22 13 9 46 62 39 62 -3 0 3 10 14
22 11 11 18 25 15 30 -3 4 0 8 6 8 6 0 9 4 6 9 -3 4 3 16 14 26 11 10 17 22
14 26 -3 5 0 9 6 9 6 0 9 4 5 9 -3 6 2 14 10 19 9 5 17 16 19 26 1 10 9 22 17
27 8 5 10 9 6 9 -4 0 1 10 12 22 11 11 18 25 15 30 -3 4 0 8 7 8 7 0 10 3 6 6
-3 3 3 15 13 27 11 11 17 23 15 27 -2 4 4 16 15 27 10 12 16 24 13 27 -4 3 -1
6 6 6 7 0 10 4 7 8 -3 5 4 16 15 25 10 9 19 24 19 32 0 8 5 15 11 15 5 0 7 5
4 10 -3 6 -2 10 4 10 6 0 13 11 17 25 3 14 11 25 17 25 6 0 8 3 4 6 -3 3 3 15
13 27 11 11 17 24 14 28 -2 4 5 17 17 27 11 11 22 27 23 37 1 9 9 21 17 26 8
5 10 9 4 9 -5 0 -4 4 3 9 7 4 14 16 16 25 1 10 7 21 12 24 13 9 46 62 39 62
-3 0 3 10 14 22 11 11 18 25 15 30 -3 4 0 8 6 8 6 0 9 4 6 9 -3 4 3 16 14 26
11 10 18 21 15 25 -2 4 5 17 16 29 12 12 22 29 23 37 1 9 9 20 17 25 8 5 10 9
6 9 -4 0 1 10 12 22 11 11 18 25 15 30 -3 4 -1 8 3 8 11 0 47 60 36 60 -4 0
-1 6 7 13 17 14 170 262 170 277 0 5 -181 291 -403 637 -222 345 -450 700
-506 788 -57 88 -113 168 -124 178 -12 10 -15 15 -7 11 8 -4 0 7 -17 25 -31
30 -38 43 -34 64 1 5 -3 6 -8 2 -16 -9 -32 30 -19 43 9 9 214 12 784 12 l773
0 36 -35z"/>
</g>
</svg>
