<?xml version="1.0" standalone="no"?>
<!DOCTYPE svg PUBLIC "-//W3C//DTD SVG 20010904//EN"
 "http://www.w3.org/TR/2001/REC-SVG-20010904/DTD/svg10.dtd">
<svg version="1.0" xmlns="http://www.w3.org/2000/svg"
 width="1916.000000pt" height="969.000000pt" viewBox="0 0 1916.000000 969.000000"
 preserveAspectRatio="xMidYMid meet">
<metadata>
Created by potrace 1.16, written by Peter Selinger 2001-2019
</metadata>
<g transform="translate(0.000000,969.000000) scale(0.100000,-0.100000)"
fill="#000000" stroke="none">
<path d="M99 9596 c-20 -20 -24 -33 -23 -84 2 -70 -7 -54 218 -404 44 -68 82
-133 84 -146 3 -15 -41 -97 -149 -280 l-153 -257 -2 -78 -2 -78 50 -54 c90
-98 83 -97 347 -93 l230 3 30 31 c17 17 35 43 40 57 6 15 18 27 27 27 9 0 45
-27 81 -60 l64 -60 288 0 c339 0 321 -6 321 108 0 60 -4 79 -25 112 -14 22
-25 42 -25 46 0 3 -10 20 -22 37 -25 35 -43 64 -54 87 -4 8 -18 29 -31 46 -13
17 -23 36 -23 42 0 6 -6 17 -13 24 -16 17 -67 96 -67 103 0 4 -11 21 -25 39
-34 44 -32 68 13 144 20 35 42 73 49 84 6 12 15 23 20 27 4 3 16 22 25 41 19
37 30 55 63 105 95 142 123 232 91 293 -25 47 -152 162 -179 162 -16 0 -12
-31 6 -47 l22 -18 -20 25 c-10 14 13 -6 53 -45 40 -38 72 -72 72 -74 0 -3 -20
15 -45 39 -25 24 -45 41 -45 37 0 -4 -8 -3 -18 2 -16 8 -33 -15 -132 -177
-231 -380 -220 -364 -238 -350 -13 11 -15 11 -7 -2 38 -67 362 -589 375 -605
9 -11 20 -24 23 -30 3 -7 -79 -9 -240 -7 -169 2 -243 0 -238 -7 3 -6 2 -11 -3
-11 -21 0 -66 67 -138 207 -43 83 -82 149 -87 146 -5 -3 -5 -8 1 -12 26 -16
17 -41 -96 -249 l-39 -74 -183 2 c-175 1 -182 0 -169 -17 7 -10 -2 -4 -20 12
-19 17 -30 24 -26 16 5 -9 4 -12 -3 -7 -7 4 -12 14 -12 22 0 8 -5 12 -11 9 -6
-4 -5 2 2 13 7 12 17 19 21 16 4 -3 5 1 3 8 -3 8 2 22 11 33 8 11 12 14 8 6
-4 -9 -3 -12 4 -7 6 4 9 12 6 19 -2 7 3 21 12 32 8 11 12 14 8 6 -4 -9 -3 -12
4 -7 6 4 8 14 5 23 -5 12 -3 14 7 8 9 -5 11 -4 6 3 -9 15 18 55 29 44 5 -4 5
-1 1 5 -8 15 17 56 28 46 4 -4 4 -1 1 8 -3 8 2 23 11 34 8 11 12 14 8 6 -4 -9
-3 -12 4 -7 6 4 8 14 5 23 -5 12 -3 14 7 8 9 -5 11 -4 6 3 -9 15 18 55 29 44
5 -4 5 -1 1 5 -9 16 17 56 29 45 5 -4 5 -1 1 5 -8 15 17 56 28 46 4 -4 4 -1 1
8 -3 8 2 23 11 34 8 11 12 14 8 6 -4 -9 -3 -12 4 -7 6 4 9 13 6 21 -3 7 4 18
16 25 13 7 19 17 16 26 -3 8 -2 12 3 9 5 -3 12 3 16 14 4 14 -34 82 -140 248
-81 125 -156 235 -167 244 -12 9 -18 21 -14 27 3 6 1 14 -5 18 -8 5 -10 2 -5
-7 4 -8 -1 -3 -12 10 -11 13 -17 32 -15 41 8 29 -13 32 -38 6z"/>
<path d="M654 9608 c6 -26 18 -48 29 -48 5 0 2 10 -9 23 -10 12 12 -7 49 -43
37 -35 67 -67 67 -69 0 -3 -21 15 -46 39 -26 25 -44 37 -41 27 4 -11 3 -16 -4
-12 -6 4 -8 14 -4 24 5 12 3 13 -5 5 -9 -9 3 -38 45 -118 31 -58 59 -106 61
-106 8 0 38 66 35 79 -1 8 2 10 10 5 8 -5 10 -3 4 6 -5 8 -2 18 9 26 10 7 17
15 17 18 -3 20 0 26 9 21 6 -4 7 1 3 11 -4 12 -3 15 5 10 8 -5 10 -1 5 10 -4
12 -3 15 5 10 8 -5 10 -1 5 10 -5 13 -3 15 7 9 9 -5 11 -4 6 3 -8 14 18 55 28
45 4 -4 4 0 0 10 -10 27 -25 21 -75 -33 -26 -27 -52 -50 -58 -50 -7 0 -27 15
-46 33 -52 49 -61 56 -88 62 -18 5 -25 3 -23 -7z"/>
</g>
</svg>
